<?xml version="1.0" standalone="no"?>
<!DOCTYPE svg PUBLIC "-//W3C//DTD SVG 20010904//EN"
 "http://www.w3.org/TR/2001/REC-SVG-20010904/DTD/svg10.dtd">
<svg version="1.0" xmlns="http://www.w3.org/2000/svg"
 width="500.000000pt" height="500.000000pt" viewBox="0 0 500.000000 500.000000"
 preserveAspectRatio="xMidYMid meet">
<metadata>
Created by potrace 1.11, written by Peter Selinger 2001-2013
</metadata>
<g transform="translate(0.000000,500.000000) scale(0.100000,-0.100000)"
fill="#000000" stroke="none">
<path d="M995 4320 c-2 -3 -3 -816 -3 -1808 l-1 -1803 807 4 c444 2 824 7 844
10 250 40 351 68 546 149 229 96 484 288 631 478 194 248 332 584 366 890 3
30 8 73 11 95 8 53 8 313 0 362 -3 21 -8 63 -11 93 -9 91 -47 272 -65 315 -5
11 -14 38 -20 60 -17 59 -30 88 -86 205 -93 191 -174 304 -333 460 -209 206
-475 353 -776 431 -119 30 -140 34 -318 55 -62 8 -1587 12 -1592 4z m1635
-554 c260 -56 444 -163 611 -356 121 -140 227 -406 256 -640 10 -84 10 -428 0
-501 -43 -309 -148 -539 -327 -719 -136 -136 -341 -246 -514 -275 -17 -3 -38
-8 -46 -10 -49 -14 -179 -18 -537 -19 l-403 -2 0 1274 0 1274 443 -5 c358 -4
456 -8 517 -21z"/>
</g>
</svg>
